<?xml version="1.0" encoding="UTF-8" standalone="no"?>
<!-- Created with Inkscape (http://www.inkscape.org/) -->

<svg
   xmlns:dc="http://purl.org/dc/elements/1.1/"
   xmlns:cc="http://creativecommons.org/ns#"
   xmlns:rdf="http://www.w3.org/1999/02/22-rdf-syntax-ns#"
   xmlns:svg="http://www.w3.org/2000/svg"
   xmlns="http://www.w3.org/2000/svg"
   xmlns:sodipodi="http://sodipodi.sourceforge.net/DTD/sodipodi-0.dtd"
   xmlns:inkscape="http://www.inkscape.org/namespaces/inkscape"
   version="1.0"
   width="580"
   height="580"
   id="svg2"
   sodipodi:version="0.32"
   inkscape:version="0.48.5 r10040"
   sodipodi:docname="alpinehut3_half_year.svg"
   inkscape:output_extension="org.inkscape.output.svg.inkscape">
  <metadata
     id="metadata2975">
    <rdf:RDF>
      <cc:Work
         rdf:about="">
        <dc:format>image/svg+xml</dc:format>
        <dc:type
           rdf:resource="http://purl.org/dc/dcmitype/StillImage" />
        <cc:license
           rdf:resource="http://web.resource.org/cc/PublicDomain" />
        <dc:language>en</dc:language>
        <dc:title></dc:title>
      </cc:Work>
    </rdf:RDF>
  </metadata>
  <sodipodi:namedview
     inkscape:window-height="720"
     inkscape:window-width="1366"
     inkscape:pageshadow="2"
     inkscape:pageopacity="0.0"
     guidetolerance="10.0"
     gridtolerance="10.0"
     objecttolerance="10.0"
     borderopacity="1.0"
     bordercolor="#666666"
     pagecolor="#ffffff"
     id="base"
     inkscape:zoom="1"
     inkscape:cx="281.93044"
     inkscape:cy="269.6568"
     inkscape:window-x="-3"
     inkscape:window-y="-3"
     inkscape:current-layer="svg2"
     showgrid="false"
     inkscape:window-maximized="1" />
  <defs
     id="defs4">
    <inkscape:perspective
       sodipodi:type="inkscape:persp3d"
       inkscape:vp_x="0 : 290 : 1"
       inkscape:vp_y="0 : 1000 : 0"
       inkscape:vp_z="580 : 290 : 1"
       inkscape:persp3d-origin="290 : 193.33333 : 1"
       id="perspective2441" />
    <inkscape:perspective
       id="perspective3452"
       inkscape:persp3d-origin="30 : 20 : 1"
       inkscape:vp_z="60 : 30 : 1"
       inkscape:vp_y="0 : 1000 : 0"
       inkscape:vp_x="0 : 30 : 1"
       sodipodi:type="inkscape:persp3d" />
    <symbol
       viewBox="244.5 110 489 219.9"
       id="symbol-university">
      <path
         id="path4460"
         d="M79,43l57,119c0,0,21-96,104-96s124,106,124,106l43-133l82-17L0,17L79,43z" />
      <path
         id="path4462"
         d="M94,176l-21,39"
         stroke-width="20"
         stroke="#000000"
         fill="none" />
      <path
         id="path4464"
         d="M300,19c0,10.5-22.6,19-50.5,19S199,29.5,199,19s22.6-19,50.5-19S300,8.5,300,19z" />
      <path
         id="path4466"
         d="M112,216l-16-38L64,88c0,0-9-8-4-35s16-24,16-24"
         stroke-width="20"
         stroke="#000000"
         ill="none" />
    </symbol>
    <inkscape:perspective
       id="perspective4471"
       inkscape:persp3d-origin="372.04724 : 350.78739 : 1"
       inkscape:vp_z="744.09448 : 526.18109 : 1"
       inkscape:vp_y="0 : 1000 : 0"
       inkscape:vp_x="0 : 526.18109 : 1"
       sodipodi:type="inkscape:persp3d" />
    <inkscape:perspective
       id="perspective4668"
       inkscape:persp3d-origin="6 : 4 : 1"
       inkscape:vp_z="12 : 6 : 1"
       inkscape:vp_y="0 : 1000 : 0"
       inkscape:vp_x="0 : 6 : 1"
       sodipodi:type="inkscape:persp3d" />
    <inkscape:perspective
       id="perspective2836"
       inkscape:persp3d-origin="0.5 : 0.33333333 : 1"
       inkscape:vp_z="1 : 0.5 : 1"
       inkscape:vp_y="0 : 1000 : 0"
       inkscape:vp_x="0 : 0.5 : 1"
       sodipodi:type="inkscape:persp3d" />
    <inkscape:perspective
       id="perspective3608"
       inkscape:persp3d-origin="0.5 : 0.33333333 : 1"
       inkscape:vp_z="1 : 0.5 : 1"
       inkscape:vp_y="0 : 1000 : 0"
       inkscape:vp_x="0 : 0.5 : 1"
       sodipodi:type="inkscape:persp3d" />
  </defs>
  <g
     id="layer3"
     inkscape:label="Layout"
     style="display:none;stroke:#757575;stroke-opacity:1"
     transform="matrix(48.14969,0,0,48.14969,-536.27327,-33.306752)">
    <rect
       style="fill:none;stroke:#757575;stroke-width:0.10000000000000001;stroke-miterlimit:4;stroke-dasharray:none;stroke-opacity:1;display:inline"
       id="rect4134"
       width="10"
       height="10"
       x="1"
       y="1" />
    <rect
       style="fill:none;stroke:#757575;stroke-width:0.10000000000000001;stroke-miterlimit:4;stroke-dasharray:none;stroke-opacity:1;display:inline"
       id="rect4136"
       width="8"
       height="8"
       x="2"
       y="2" />
  </g>
  <rect
     style="opacity:0.4;fill:#ffffff;fill-opacity:1;fill-rule:evenodd;stroke:#ffffff;stroke-width:10;stroke-linecap:butt;stroke-linejoin:miter;stroke-miterlimit:4;stroke-opacity:1;stroke-dasharray:none"
     id="rect2816"
     width="278.21988"
     height="308.96329"
     x="145.019"
     y="197.33803" />
  <path
     style="fill:#000000;fill-opacity:1;stroke:#000000;stroke-width:10;stroke-linecap:butt;stroke-linejoin:miter;stroke-miterlimit:4;stroke-opacity:1;stroke-dasharray:none"
     d="m 50.907039,506.80147 473.224611,0"
     id="path3590" />
  <path
     sodipodi:type="star"
     style="fill:#000000;stroke:#000000;stroke-width:5;stroke-miterlimit:4;stroke-opacity:1;stroke-dasharray:none;fill-opacity:1"
     id="path3598"
     sodipodi:sides="3"
     sodipodi:cx="365"
     sodipodi:cy="413.36218"
     sodipodi:r1="187.04613"
     sodipodi:r2="93.523056"
     sodipodi:arg1="0.52345643"
     sodipodi:arg2="1.570654"
     inkscape:flatsided="true"
     inkscape:rounded="0"
     inkscape:randomized="0"
     d="M 527.00001,506.86219 203.02662,506.9083 364.97337,226.31606 527.00001,506.86219 z"
     transform="matrix(1.43079,0,0,0.59494186,-234.42901,-100.67666)" />
  <rect
     style="fill:none;fill-opacity:0.48230087999999999;stroke:#000000;stroke-width:10;stroke-linecap:butt;stroke-linejoin:miter;stroke-miterlimit:4;stroke-opacity:1;stroke-dasharray:none"
     id="rect2816-7"
     width="278.21988"
     height="308.96329"
     x="145.15448"
     y="198.18271"
     ry="0" />
  <path
     style="fill:none;stroke:#000000;stroke-width:10;stroke-linecap:butt;stroke-linejoin:miter;stroke-opacity:1;stroke-miterlimit:4;stroke-dasharray:none"
     d="M 424,197 146,506"
     id="path3007"
     inkscape:connector-curvature="0" />
  <path
     style="fill:none;stroke:#000000;stroke-width:10;stroke-miterlimit:4;stroke-opacity:1;stroke-dasharray:none"
     d="m 159.34914,499.95114 c 0.83515,-1.35131 249.79633,-278.41581 255.00564,-283.79127 l 3.37566,-3.48334 0,144.23334 0,144.23333 -129.55902,0 c -100.03414,0 -129.39112,-0.27166 -128.82228,-1.19206 z"
     id="path3777"
     inkscape:connector-curvature="0" />
  <path
     style="fill:none;stroke:#000000;stroke-width:10;stroke-miterlimit:4;stroke-opacity:1;stroke-dasharray:none"
     d="m 228.45865,495.1556 -56.77179,-0.5124 118.0958,-131.5 c 64.95269,-72.325 119.1875,-132.61477 120.52179,-133.97727 l 2.42599,-2.47728 0,134.72728 0,134.72727 -63.75,-0.2376 c -35.0625,-0.13068 -89.29731,-0.46818 -120.52179,-0.75 l 0,0 z"
     id="path3779"
     inkscape:connector-curvature="0" />
  <path
     style="fill:none;stroke:#000000;stroke-width:10;stroke-miterlimit:4;stroke-opacity:1;stroke-dasharray:none"
     d="m 206.41227,489.1727 -21.81818,-0.5295 28.75576,-32 c 15.81567,-17.6 64.51244,-71.825 108.21505,-120.5 43.70261,-48.675 80.96819,-90.0675 82.81241,-91.98333 l 3.35313,-3.48334 0,124.73334 0,124.73333 -89.75,-0.2205 c -49.3625,-0.12127 -99.56818,-0.45877 -111.56817,-0.75 z"
     id="path3781"
     inkscape:connector-curvature="0" />
  <path
     style="fill:none;stroke:#000000;stroke-width:10;stroke-miterlimit:4;stroke-opacity:1;stroke-dasharray:none"
     d="m 299.56337,484.16385 c -55.36688,-0.28636 -100.94077,-0.79454 -101.27531,-1.1293 -0.33453,-0.33475 13.91565,-16.76365 31.66707,-36.50866 17.75142,-19.745 62.19198,-69.19611 98.7568,-109.89135 36.56482,-40.69524 68.16607,-75.79134 70.225,-77.99134 l 3.7435,-4 0.025,115.25 c 0.0199,91.66652 -0.23079,115.20307 -1.225,115.02065 -0.6875,-0.12614 -46.55018,-0.46364 -101.91707,-0.75 l 1e-5,0 z"
     id="path3783"
     inkscape:connector-curvature="0" />
  <path
     style="fill:none;stroke:#000000;stroke-width:10;stroke-miterlimit:4;stroke-opacity:1;stroke-dasharray:none"
     d="m 253.0251,478.15917 -43.20533,-0.51597 14.68713,-16.5 C 247.64476,435.14937 390.66183,275.97589 393.85652,272.66243 l 2.87392,-2.98077 0,104.73077 0,104.73077 -50.25,-0.23403 c -27.6375,-0.12872 -69.6924,-0.46622 -93.45534,-0.75 z"
     id="path3785"
     inkscape:connector-curvature="0" />
  <path
     style="fill:none;stroke:#000000;stroke-width:10;stroke-miterlimit:4;stroke-opacity:1;stroke-dasharray:none"
     d="m 236.4273,472.18637 -13.80314,-0.54317 82.14738,-91.5 c 45.18106,-50.325 83.22997,-92.61477 84.55314,-93.97727 l 2.40576,-2.47728 0,94.72728 0,94.72727 -70.75,-0.20683 c -38.9125,-0.11376 -76.96141,-0.45126 -84.55314,-0.75 l 0,0 z"
     id="path3787"
     inkscape:connector-curvature="0" />
  <path
     style="fill:none;stroke:#000000;stroke-width:10;stroke-miterlimit:4;stroke-opacity:1;stroke-dasharray:none"
     d="m 309.96363,467.1527 -75.26682,-0.5095 10.31165,-11.5 C 309.07943,383.68843 381.57109,303.03603 383.85824,300.66243 l 2.8722,-2.98077 0,85.23077 c 0,46.87692 -0.3375,85.12254 -0.75,84.99027 -0.4125,-0.13228 -34.62007,-0.46978 -76.01681,-0.75 z"
     id="path3789"
     inkscape:connector-curvature="0" />
  <path
     style="fill:none;stroke:#000000;stroke-width:10;stroke-miterlimit:4;stroke-opacity:1;stroke-dasharray:none"
     d="m 278.42365,461.16497 -30.80679,-0.52177 66.7311,-74.24236 c 36.7021,-40.8333 66.92907,-74.04438 67.17104,-73.80241 0.24198,0.24198 0.10484,33.98854 -0.30476,74.99236 l -0.74471,74.55241 -35.61955,-0.22823 c -19.59075,-0.12552 -49.4826,-0.46302 -66.42633,-0.75 l 0,0 z"
     id="path3791"
     inkscape:connector-curvature="0" />
  <path
     style="fill:none;stroke:#000000;stroke-width:10;stroke-miterlimit:4;stroke-opacity:1;stroke-dasharray:none"
     d="m 268.41451,455.20982 -7.81593,-0.56662 15.23792,-17 c 35.23807,-39.31292 95.78339,-106.14185 97.75918,-107.90499 l 2.13476,-1.90499 0,50.49688 c 0,27.77328 -0.29476,56.64303 -0.65503,64.15499 l -0.65503,13.65811 -49.09497,-0.18338 c -27.00223,-0.10086 -52.61214,-0.43836 -56.9109,-0.75 l 0,0 z"
     id="path3799"
     inkscape:connector-curvature="0" />
  <path
     style="fill:none;stroke:#000000;stroke-width:10;stroke-miterlimit:4;stroke-opacity:1;stroke-dasharray:none"
     d="m 274.40027,447.84729 c 1.00659,-1.27336 22.98017,-25.6574 48.83017,-54.18673 l 47,-51.87153 0.25096,4.42709 c 0.13803,2.43489 -0.087,26.70208 -0.5,53.92708 l -0.75096,49.5 -48.33017,0.25965 -48.33018,0.25966 1.83018,-2.31522 0,0 z"
     id="path3801"
     inkscape:connector-curvature="0" />
  <path
     style="fill:none;stroke:#000000;stroke-width:10;stroke-miterlimit:4;stroke-opacity:1;stroke-dasharray:none"
     d="m 287.87387,441.3932 c 1.38468,-1.5125 13.03934,-14.45 25.89925,-28.75 12.8599,-14.3 29.47367,-32.70718 36.91948,-40.90485 l 13.53784,-14.90485 0.32101,16.40485 c 0.17656,9.02267 0.0129,28.66735 -0.36377,43.65485 l -0.68479,27.25 -39.07332,0 -39.07331,0 2.51761,-2.75 z"
     id="path3803"
     inkscape:connector-curvature="0" />
  <path
     style="fill:none;stroke:#000000;stroke-width:10;stroke-miterlimit:4;stroke-opacity:1;stroke-dasharray:none"
     d="m 300.86408,435.38713 c 1.8515,-2.06584 15.51636,-17.22488 30.36636,-33.68676 l 27,-29.93068 0.28929,30.43675 c 0.1591,16.74022 0.0262,31.89926 -0.29532,33.68676 l -0.5846,3.25 -30.07104,0 -30.07105,0 3.36636,-3.75607 z"
     id="path3805"
     inkscape:connector-curvature="0" />
  <path
     style="fill:none;stroke:#000000;stroke-width:10;stroke-miterlimit:4;stroke-opacity:1;stroke-dasharray:none"
     d="m 313.36507,429.8932 c 2.13915,-2.3375 11.6996,-12.9125 21.24545,-23.5 9.54586,-10.5875 17.52796,-19.25 17.73801,-19.25 0.21005,0 0.38191,10.575 0.38191,23.5 l 0,23.5 -21.62736,0 -21.62736,0 3.88935,-4.25 z"
     id="path3807"
     inkscape:connector-curvature="0" />
  <path
     style="fill:none;stroke:#000000;stroke-width:10;stroke-miterlimit:4;stroke-opacity:1;stroke-dasharray:none"
     d="m 325.84454,424.3932 c 2.41328,-2.6125 7.98736,-8.7347 12.38684,-13.60488 l 7.99906,-8.85487 0.66239,4.85487 c 0.36432,2.67019 0.70182,8.79238 0.75,13.60488 l 0.0876,8.75 -13.13684,0 -13.13684,0 4.38778,-4.75 z"
     id="path3809"
     inkscape:connector-curvature="0" />
  <path
     style="fill:none;stroke:#000000;stroke-width:10;stroke-miterlimit:4;stroke-opacity:1;stroke-dasharray:none"
     d="m 337.23044,420.1432 c 2.14824,-2.2 4.03957,-4 4.20295,-4 0.16338,0 0.29705,1.8 0.29705,4 l 0,4 -4.20295,0 -4.20295,0 3.9059,-4 z"
     id="path3813"
     inkscape:connector-curvature="0" />
</svg>
