<?xml version="1.0" encoding="UTF-8" standalone="no"?>
<!-- Created with Inkscape (http://www.inkscape.org/) -->

<svg
   xmlns:dc="http://purl.org/dc/elements/1.1/"
   xmlns:cc="http://creativecommons.org/ns#"
   xmlns:rdf="http://www.w3.org/1999/02/22-rdf-syntax-ns#"
   xmlns:svg="http://www.w3.org/2000/svg"
   xmlns="http://www.w3.org/2000/svg"
   xmlns:sodipodi="http://sodipodi.sourceforge.net/DTD/sodipodi-0.dtd"
   xmlns:inkscape="http://www.inkscape.org/namespaces/inkscape"
   version="1.0"
   width="580"
   height="580"
   id="svg2"
   sodipodi:version="0.32"
   inkscape:version="0.48.3.1 r9886"
   sodipodi:docname="stop.svg"
   inkscape:output_extension="org.inkscape.output.svg.inkscape">
  <metadata
     id="metadata2975">
    <rdf:RDF>
      <cc:Work
         rdf:about="">
        <dc:format>image/svg+xml</dc:format>
        <dc:type
           rdf:resource="http://purl.org/dc/dcmitype/StillImage" />
        <cc:license
           rdf:resource="http://web.resource.org/cc/PublicDomain" />
        <dc:language>en</dc:language>
        <dc:title />
      </cc:Work>
    </rdf:RDF>
  </metadata>
  <sodipodi:namedview
     inkscape:window-height="551"
     inkscape:window-width="1024"
     inkscape:pageshadow="2"
     inkscape:pageopacity="0.0"
     guidetolerance="10.0"
     gridtolerance="10.0"
     objecttolerance="10.0"
     borderopacity="1.0"
     bordercolor="#666666"
     pagecolor="#ffffff"
     id="base"
     inkscape:zoom="0.92167712"
     inkscape:cx="315.52993"
     inkscape:cy="266.03597"
     inkscape:window-x="0"
     inkscape:window-y="0"
     inkscape:current-layer="svg2"
     showgrid="false"
     inkscape:window-maximized="1" />
  <defs
     id="defs4">
    <inkscape:perspective
       sodipodi:type="inkscape:persp3d"
       inkscape:vp_x="0 : 290 : 1"
       inkscape:vp_y="0 : 1000 : 0"
       inkscape:vp_z="580 : 290 : 1"
       inkscape:persp3d-origin="290 : 193.33333 : 1"
       id="perspective2441" />
    <inkscape:perspective
       id="perspective3452"
       inkscape:persp3d-origin="30 : 20 : 1"
       inkscape:vp_z="60 : 30 : 1"
       inkscape:vp_y="0 : 1000 : 0"
       inkscape:vp_x="0 : 30 : 1"
       sodipodi:type="inkscape:persp3d" />
    <symbol
       viewBox="244.5 110 489 219.9"
       id="symbol-university">
      <path
         id="path4460"
         d="M79,43l57,119c0,0,21-96,104-96s124,106,124,106l43-133l82-17L0,17L79,43z" />
      <path
         id="path4462"
         d="M94,176l-21,39"
         stroke-width="20"
         stroke="#000000"
         fill="none" />
      <path
         id="path4464"
         d="M300,19c0,10.5-22.6,19-50.5,19S199,29.5,199,19s22.6-19,50.5-19S300,8.5,300,19z" />
      <path
         id="path4466"
         d="M112,216l-16-38L64,88c0,0-9-8-4-35s16-24,16-24"
         stroke-width="20"
         stroke="#000000"
         ill="none" />
    </symbol>
    <inkscape:perspective
       id="perspective4471"
       inkscape:persp3d-origin="372.04724 : 350.78739 : 1"
       inkscape:vp_z="744.09448 : 526.18109 : 1"
       inkscape:vp_y="0 : 1000 : 0"
       inkscape:vp_x="0 : 526.18109 : 1"
       sodipodi:type="inkscape:persp3d" />
    <inkscape:perspective
       id="perspective4668"
       inkscape:persp3d-origin="6 : 4 : 1"
       inkscape:vp_z="12 : 6 : 1"
       inkscape:vp_y="0 : 1000 : 0"
       inkscape:vp_x="0 : 6 : 1"
       sodipodi:type="inkscape:persp3d" />
  </defs>
  <g
     id="g1327">
    <path
       d="M 66.275,1.768 C 24.94,1.768 1.704,23.139 1.704,66.804 L 1.704,516.927 C 1.704,557.771 22.599,579.156 63.896,579.156 L 515.92,579.156 C 557.227,579.156 578.149,558.841 578.149,516.927 L 578.149,66.804 C 578.149,24.203 557.227,1.768 514.628,1.768 C 514.624,1.768 66.133,1.625 66.275,1.768 z "
       style="fill:#111;stroke:#eee;stroke-width:3.40799999"
       id="path1329" />
  </g>
  <g
     id="layer3"
     inkscape:label="Layout"
     style="display:none;stroke:#757575;stroke-opacity:1"
     transform="matrix(48.14969,0,0,48.14969,-536.27327,-33.306752)">
    <rect
       style="fill:none;stroke:#757575;stroke-width:0.10000000000000001;stroke-miterlimit:4;stroke-dasharray:none;stroke-opacity:1;display:inline"
       id="rect4134"
       width="10"
       height="10"
       x="1"
       y="1" />
    <rect
       style="fill:none;stroke:#757575;stroke-width:0.10000000000000001;stroke-miterlimit:4;stroke-dasharray:none;stroke-opacity:1;display:inline"
       id="rect4136"
       width="8"
       height="8"
       x="2"
       y="2" />
  </g>
  <path
     sodipodi:type="star"
     style="fill:#ffffff;fill-opacity:0.49019607999999998;fill-rule:nonzero;stroke:#ffffff;stroke-width:7.59574895999999988;stroke-miterlimit:4;stroke-opacity:1;stroke-dasharray:none"
     id="path2995"
     sodipodi:sides="6"
     sodipodi:cx="90.05323"
     sodipodi:cy="132.9888"
     sodipodi:r1="188.42429"
     sodipodi:r2="163.18021"
     sodipodi:arg1="0.67114384"
     sodipodi:arg2="1.1947426"
     inkscape:flatsided="true"
     inkscape:rounded="0"
     inkscape:randomized="0"
     d="M 237.61033,250.1665 62.352917,319.36585 -85.204185,202.18815 -57.503871,15.811101 117.75354,-53.388248 265.31065,63.789451 z"
     transform="matrix(0.2008851,1.2353104,-1.3737042,0.18064694,455.3712,156.57657)" />
  <g
     transform="translate(-32,18)"
     style="font-size:172px;font-style:normal;font-variant:normal;font-weight:bold;font-stretch:normal;text-align:start;line-height:125%;letter-spacing:0px;word-spacing:0px;writing-mode:lr-tb;text-anchor:start;fill:#ffffff;fill-opacity:1;stroke:none;font-family:Arial;-inkscape-font-specification:Arial Bold"
     id="flowRoot3767">
    <path
       d="m 96.277344,296.91935 24.187496,-2.35156 c 1.4557,8.11852 4.39515,14.08141 8.81836,17.88867 4.47913,3.80731 10.498,5.71096 18.05664,5.71094 8.00645,2e-5 14.02532,-1.67967 18.05664,-5.03907 4.08716,-3.41533 6.13078,-7.39059 6.13086,-11.92578 -8e-5,-2.91142 -0.86792,-5.37496 -2.60351,-7.39062 -1.67977,-2.07157 -4.64721,-3.86324 -8.90235,-5.375 -2.91152,-1.00777 -9.54628,-2.79943 -19.90429,-5.375 -13.32556,-3.30333 -22.67581,-7.36257 -28.05078,-12.17774 -7.55861,-6.77466 -11.33791,-15.03312 -11.33789,-24.77539 -2e-5,-6.27073 1.76366,-12.12164 5.29101,-17.55273 3.58332,-5.48687 8.70636,-9.65809 15.36914,-12.51367 6.71871,-2.85535 14.8092,-4.28308 24.27149,-4.28321 15.45305,1.3e-4 27.07088,3.38749 34.85351,10.16211 7.83845,6.77485 11.95368,15.81716 12.3457,27.12696 L 168,250.14005 c -1.06388,-6.32673 -3.35945,-10.86188 -6.88672,-13.60547 -3.47142,-2.79937 -8.70644,-4.19911 -15.70508,-4.19921 -7.2227,10e-5 -12.87764,1.48382 -16.96484,4.45117 -2.63155,1.90374 -3.9473,4.45126 -3.94727,7.64258 -3e-5,2.91154 1.23174,5.40308 3.69532,7.4746 3.13537,2.6316 10.74995,5.37508 22.84375,8.23047 12.09367,2.85555 21.024,5.82299 26.79101,8.90235 5.82282,3.0235 10.35798,7.19472 13.60547,12.51367 3.30328,5.26307 4.95497,11.78585 4.95508,19.56836 -1.1e-4,7.05471 -1.95974,13.66148 -5.87891,19.82031 -3.91936,6.15886 -9.46233,10.75001 -16.6289,13.77344 -7.16675,2.96745 -16.09708,4.45117 -26.79102,4.45117 -15.56515,0 -27.51891,-3.58333 -35.86133,-10.75 -8.34246,-7.22264 -13.325526,-17.72068 -14.949216,-31.49414"
       style="line-height:125%;fill:#ffffff;font-family:Arial;-inkscape-font-specification:Arial Bold"
       id="path3769" />
    <path
       d="m 245.18164,336.9799 0,-102.29297 -36.5332,0 0,-20.82813 97.84179,0 0,20.82813 -36.44921,0 0,102.29297 -24.85938,0"
       style="line-height:125%;fill:#ffffff;font-family:Arial;-inkscape-font-specification:Arial Bold"
       id="path3771" />
    <path
       d="m 314.2168,276.17521 c -10e-6,-12.54159 1.87564,-23.06763 5.62695,-31.57813 2.79946,-6.27073 6.60675,-11.89768 11.42187,-16.88086 4.87107,-4.98295 10.19007,-8.67826 15.95704,-11.08593 7.67052,-3.24728 16.51687,-4.87097 26.53906,-4.8711 18.14054,1.3e-4 32.64183,5.62708 43.5039,16.88086 10.91785,11.25401 16.37683,26.90308 16.37696,46.94727 -1.3e-4,19.87634 -5.40312,35.44143 -16.20899,46.69531 -10.80609,11.19792 -25.25138,16.79687 -43.33593,16.79688 -18.30865,-1e-5 -32.86592,-5.57096 -43.67188,-16.71289 -10.806,-11.1979 -16.20899,-26.59502 -16.20898,-46.19141 m 25.61523,-0.83984 c -3e-5,13.94145 3.21937,24.52347 9.6582,31.74609 6.43876,7.16669 14.61323,10.75002 24.52344,10.75 9.91008,2e-5 18.02856,-3.55532 24.35547,-10.66602 6.38272,-7.16663 9.57412,-17.88862 9.57422,-32.16601 -10e-5,-14.1093 -3.10752,-24.63533 -9.32227,-31.57813 -6.15894,-6.94261 -14.3614,-10.41396 -24.60742,-10.41406 -10.24615,1e-4 -18.5046,3.52744 -24.77539,10.58203 -6.27087,6.99879 -9.40628,17.58081 -9.40625,31.7461"
       style="line-height:125%;fill:#ffffff;font-family:Arial;-inkscape-font-specification:Arial Bold"
       id="path3773" />
    <path
       d="m 452.95898,336.9799 0,-123.1211 39.89258,0 c 15.11712,1.3e-4 24.97128,0.61601 29.5625,1.84766 7.0546,1.84777 12.9615,5.87902 17.72071,12.09375 4.75901,6.15896 7.13856,14.13746 7.13867,23.93555 -1.1e-4,7.55867 -1.37185,13.91348 -4.11524,19.06445 -2.74359,5.1511 -6.24293,9.21034 -10.49804,12.17773 -4.19931,2.91151 -8.48251,4.84315 -12.84961,5.79493 -5.93497,1.17582 -14.52936,1.76371 -25.78321,1.76367 l -16.20898,0 0,46.44336 -24.85938,0 m 24.85938,-102.29297 0,34.9375 13.60547,0 c 9.79811,7e-5 16.34889,-0.64381 19.65234,-1.93164 3.30331,-1.28769 5.87883,-3.30332 7.72656,-6.04688 1.90357,-2.74341 2.85539,-5.93481 2.85547,-9.57422 -8e-5,-4.47907 -1.31583,-8.17438 -3.94726,-11.08593 -2.63159,-2.91136 -5.96296,-4.73102 -9.99414,-5.45899 -2.96752,-0.55979 -8.9304,-0.83974 -17.88868,-0.83984 l -12.00976,0"
       style="line-height:125%;fill:#ffffff;font-family:Arial;-inkscape-font-specification:Arial Bold"
       id="path3775" />
  </g>
</svg>
