<?xml version="1.0" encoding="UTF-8" standalone="no"?>
<!-- Created with Inkscape (http://www.inkscape.org/) -->

<svg
   xmlns:dc="http://purl.org/dc/elements/1.1/"
   xmlns:cc="http://creativecommons.org/ns#"
   xmlns:rdf="http://www.w3.org/1999/02/22-rdf-syntax-ns#"
   xmlns:svg="http://www.w3.org/2000/svg"
   xmlns="http://www.w3.org/2000/svg"
   xmlns:sodipodi="http://sodipodi.sourceforge.net/DTD/sodipodi-0.dtd"
   xmlns:inkscape="http://www.inkscape.org/namespaces/inkscape"
   version="1.0"
   width="580"
   height="580"
   id="svg2"
   sodipodi:version="0.32"
   inkscape:version="0.48.5 r10040"
   sodipodi:docname="board2.svg"
   inkscape:output_extension="org.inkscape.output.svg.inkscape">
  <metadata
     id="metadata2975">
    <rdf:RDF>
      <cc:Work
         rdf:about="">
        <dc:format>image/svg+xml</dc:format>
        <dc:type
           rdf:resource="http://purl.org/dc/dcmitype/StillImage" />
        <cc:license
           rdf:resource="http://web.resource.org/cc/PublicDomain" />
        <dc:language>en</dc:language>
        <dc:title />
      </cc:Work>
    </rdf:RDF>
  </metadata>
  <sodipodi:namedview
     inkscape:window-height="1030"
     inkscape:window-width="1680"
     inkscape:pageshadow="2"
     inkscape:pageopacity="0.0"
     guidetolerance="10.0"
     gridtolerance="10.0"
     objecttolerance="10.0"
     borderopacity="1.0"
     bordercolor="#666666"
     pagecolor="#ffffff"
     id="base"
     inkscape:zoom="1"
     inkscape:cx="261.79699"
     inkscape:cy="284.59418"
     inkscape:window-x="1363"
     inkscape:window-y="-3"
     inkscape:current-layer="g3781"
     showgrid="false"
     inkscape:window-maximized="1"
     showguides="true"
     inkscape:guide-bbox="true" />
  <defs
     id="defs4">
    <inkscape:perspective
       sodipodi:type="inkscape:persp3d"
       inkscape:vp_x="0 : 290 : 1"
       inkscape:vp_y="0 : 1000 : 0"
       inkscape:vp_z="580 : 290 : 1"
       inkscape:persp3d-origin="290 : 193.33333 : 1"
       id="perspective2441" />
    <inkscape:perspective
       id="perspective3452"
       inkscape:persp3d-origin="30 : 20 : 1"
       inkscape:vp_z="60 : 30 : 1"
       inkscape:vp_y="0 : 1000 : 0"
       inkscape:vp_x="0 : 30 : 1"
       sodipodi:type="inkscape:persp3d" />
    <symbol
       viewBox="244.5 110 489 219.9"
       id="symbol-university">
      <path
         id="path4460"
         d="M79,43l57,119c0,0,21-96,104-96s124,106,124,106l43-133l82-17L0,17L79,43z" />
      <path
         id="path4462"
         d="M94,176l-21,39"
         stroke-width="20"
         stroke="#000000"
         fill="none" />
      <path
         id="path4464"
         d="M300,19c0,10.5-22.6,19-50.5,19S199,29.5,199,19s22.6-19,50.5-19S300,8.5,300,19z" />
      <path
         id="path4466"
         d="M112,216l-16-38L64,88c0,0-9-8-4-35s16-24,16-24"
         stroke-width="20"
         stroke="#000000"
         ill="none" />
    </symbol>
    <inkscape:perspective
       id="perspective4471"
       inkscape:persp3d-origin="372.04724 : 350.78739 : 1"
       inkscape:vp_z="744.09448 : 526.18109 : 1"
       inkscape:vp_y="0 : 1000 : 0"
       inkscape:vp_x="0 : 526.18109 : 1"
       sodipodi:type="inkscape:persp3d" />
    <inkscape:perspective
       id="perspective4668"
       inkscape:persp3d-origin="6 : 4 : 1"
       inkscape:vp_z="12 : 6 : 1"
       inkscape:vp_y="0 : 1000 : 0"
       inkscape:vp_x="0 : 6 : 1"
       sodipodi:type="inkscape:persp3d" />
  </defs>
  <g
     id="layer3"
     inkscape:label="Layout"
     style="display:none;stroke:#757575;stroke-opacity:1"
     transform="matrix(48.14969,0,0,48.14969,-536.27327,-33.306752)">
    <rect
       style="fill:none;stroke:#757575;stroke-width:0.10000000000000001;stroke-miterlimit:4;stroke-dasharray:none;stroke-opacity:1;display:inline"
       id="rect4134"
       width="10"
       height="10"
       x="1"
       y="1" />
    <rect
       style="fill:none;stroke:#757575;stroke-width:0.10000000000000001;stroke-miterlimit:4;stroke-dasharray:none;stroke-opacity:1;display:inline"
       id="rect4136"
       width="8"
       height="8"
       x="2"
       y="2" />
  </g>
  <g
     id="g3776"
     transform="translate(0,-62)">
    <g
       id="g3781">
      <rect
         style="fill:#000000;fill-opacity:1;stroke:#000000;stroke-width:29.42493248;stroke-miterlimit:4;stroke-opacity:1;stroke-dasharray:none"
         id="rect2824"
         width="361.98071"
         height="145.80772"
         x="112.07061"
         y="165.03497" />
      <rect
         style="fill:#000000;fill-opacity:1;stroke:#000000;stroke-width:53.34122086;stroke-miterlimit:4;stroke-opacity:1;stroke-dasharray:none"
         id="rect3766"
         width="9.7648077"
         height="192.00966"
         x="288.35538"
         y="342.93903" />
      <path
         inkscape:connector-curvature="0"
         style="font-size:48px;font-style:normal;font-variant:normal;font-weight:bold;font-stretch:normal;text-align:start;line-height:100%;writing-mode:lr-tb;text-anchor:start;fill:#ffffff;fill-opacity:1;stroke:none;font-family:Garamond;-inkscape-font-specification:Garamond Bold"
         d="m 280.91102,185.07302 c 0,-3.3931 1.34354,-6.17363 4.03072,-8.34167 2.68711,-2.16775 6.14203,-3.25169 10.36471,-3.25181 4.52968,1.2e-4 8.29171,1.14692 11.28597,3.44035 2.99422,2.29367 4.49131,4.88571 4.49141,7.7761 -10e-5,2.1366 -0.59509,4.27307 -1.78507,6.40941 -1.19004,2.13659 -3.07107,3.84891 -5.64296,5.13698 -2.57204,1.28824 -5.20163,1.93233 -7.88869,1.93226 -3.68527,7e-5 -7.08257,-1.28808 -10.19196,-3.86451 -3.10945,-2.57623 -4.66413,-5.65524 -4.66413,-9.23711 l 0,0 z m -16.12285,112.44744 -0.23045,-6.12665 13.01346,-1.41383 c 1.91937,-0.43985 3.24373,-1.08394 3.97317,-1.93226 0.72933,-0.84827 1.09402,-2.74911 1.09402,-5.70249 l 0,-1.0368 c 0,-0.75402 0.0575,-2.12075 0.17296,-4.10013 0.11498,-1.97936 0.17247,-3.72311 0.17247,-5.23121 0,-1.19389 -0.11498,-3.48744 -0.34543,-6.8807 l 0.11497,-4.71278 -0.11497,-4.43007 0.23045,-15.36372 c -5e-5,-1.94789 -0.23045,-3.95869 -0.691,-6.03238 -0.84456,-0.9425 -2.38007,-1.75937 -4.60654,-2.45063 -2.22651,-0.69115 -6.10367,-1.19385 -11.63145,-1.5081 l 0,-5.27834 c 7.90785,-0.37683 14.85602,-1.72795 20.84451,-4.05304 4.06907,-1.50801 8.48369,-4.17859 13.24382,-8.01173 l 7.71593,0 c 0.3071,7.79187 0.4604,17.90871 0.4604,30.35042 l -0.80613,38.45645 c -5e-5,2.63917 0.15331,5.02699 0.4604,7.16346 2.38002,0.69123 6.25718,1.38242 11.63151,2.07365 2.07291,0.25136 3.72356,0.56552 4.95201,0.94254 l -0.11498,5.18408 c -2.07301,0.0627 -3.60852,0.094 -4.60653,0.094 -1.1517,0 -2.91752,-0.0627 -5.29754,-0.18861 -7.83115,-0.31409 -18.31099,-0.4713 -31.43958,-0.4713 -3.76198,0 -7.40882,0.10979 -10.9405,0.32977 -3.53168,0.21998 -5.95012,0.32977 -7.25527,0.32977 l 0,0 z"
         id="flowRoot6828" />
    </g>
  </g>
</svg>
