<?xml version="1.0" encoding="UTF-8" standalone="no"?>
<!-- Created with Inkscape (http://www.inkscape.org/) -->

<svg
   xmlns:dc="http://purl.org/dc/elements/1.1/"
   xmlns:cc="http://creativecommons.org/ns#"
   xmlns:rdf="http://www.w3.org/1999/02/22-rdf-syntax-ns#"
   xmlns:svg="http://www.w3.org/2000/svg"
   xmlns="http://www.w3.org/2000/svg"
   xmlns:sodipodi="http://sodipodi.sourceforge.net/DTD/sodipodi-0.dtd"
   xmlns:inkscape="http://www.inkscape.org/namespaces/inkscape"
   version="1.0"
   width="580"
   height="580"
   id="svg2"
   sodipodi:version="0.32"
   inkscape:version="0.47 r22583"
   sodipodi:docname="board.svg"
   inkscape:output_extension="org.inkscape.output.svg.inkscape">
  <metadata
     id="metadata2975">
    <rdf:RDF>
      <cc:Work
         rdf:about="">
        <dc:format>image/svg+xml</dc:format>
        <dc:type
           rdf:resource="http://purl.org/dc/dcmitype/StillImage" />
        <cc:license
           rdf:resource="http://web.resource.org/cc/PublicDomain" />
        <dc:language>en</dc:language>
        <dc:title></dc:title>
      </cc:Work>
    </rdf:RDF>
  </metadata>
  <sodipodi:namedview
     inkscape:window-height="549"
     inkscape:window-width="1024"
     inkscape:pageshadow="2"
     inkscape:pageopacity="0.0"
     guidetolerance="10.0"
     gridtolerance="10.0"
     objecttolerance="10.0"
     borderopacity="1.0"
     bordercolor="#666666"
     pagecolor="#ffffff"
     id="base"
     inkscape:zoom="1.1818168"
     inkscape:cx="350.35353"
     inkscape:cy="270.08288"
     inkscape:window-x="-2"
     inkscape:window-y="26"
     inkscape:current-layer="svg2"
     showgrid="false"
     inkscape:window-maximized="1"
     showguides="true"
     inkscape:guide-bbox="true" />
  <defs
     id="defs4">
    <marker
       inkscape:stockid="Arrow1Mend"
       orient="auto"
       refY="0.0"
       refX="0.0"
       id="Arrow1Mend"
       style="overflow:visible;">
      <path
         id="path4055"
         d="M 0.0,0.0 L 5.0,-5.0 L -12.5,0.0 L 5.0,5.0 L 0.0,0.0 z "
         style="fill-rule:evenodd;stroke:#000000;stroke-width:1.0pt;marker-start:none;"
         transform="scale(0.4) rotate(180) translate(10,0)" />
    </marker>
    <marker
       inkscape:stockid="Arrow2Lend"
       orient="auto"
       refY="0.0"
       refX="0.0"
       id="Arrow2Lend"
       style="overflow:visible;">
      <path
         id="path4067"
         style="font-size:12.0;fill-rule:evenodd;stroke-width:0.62500000;stroke-linejoin:round;"
         d="M 8.7185878,4.0337352 L -2.2072895,0.016013256 L 8.7185884,-4.0017078 C 6.9730900,-1.6296469 6.9831476,1.6157441 8.7185878,4.0337352 z "
         transform="scale(1.1) rotate(180) translate(1,0)" />
    </marker>
    <inkscape:perspective
       sodipodi:type="inkscape:persp3d"
       inkscape:vp_x="0 : 290 : 1"
       inkscape:vp_y="0 : 1000 : 0"
       inkscape:vp_z="580 : 290 : 1"
       inkscape:persp3d-origin="290 : 193.33333 : 1"
       id="perspective2441" />
    <inkscape:perspective
       id="perspective3452"
       inkscape:persp3d-origin="30 : 20 : 1"
       inkscape:vp_z="60 : 30 : 1"
       inkscape:vp_y="0 : 1000 : 0"
       inkscape:vp_x="0 : 30 : 1"
       sodipodi:type="inkscape:persp3d" />
    <symbol
       viewBox="244.5 110 489 219.9"
       id="symbol-university">
      <path
         id="path4460"
         d="M79,43l57,119c0,0,21-96,104-96s124,106,124,106l43-133l82-17L0,17L79,43z" />
      <path
         id="path4462"
         d="M94,176l-21,39"
         stroke-width="20"
         stroke="#000000"
         fill="none" />
      <path
         id="path4464"
         d="M300,19c0,10.5-22.6,19-50.5,19S199,29.5,199,19s22.6-19,50.5-19S300,8.5,300,19z" />
      <path
         id="path4466"
         d="M112,216l-16-38L64,88c0,0-9-8-4-35s16-24,16-24"
         stroke-width="20"
         stroke="#000000"
         ill="none" />
    </symbol>
    <inkscape:perspective
       id="perspective4471"
       inkscape:persp3d-origin="372.04724 : 350.78739 : 1"
       inkscape:vp_z="744.09448 : 526.18109 : 1"
       inkscape:vp_y="0 : 1000 : 0"
       inkscape:vp_x="0 : 526.18109 : 1"
       sodipodi:type="inkscape:persp3d" />
    <inkscape:perspective
       id="perspective4668"
       inkscape:persp3d-origin="6 : 4 : 1"
       inkscape:vp_z="12 : 6 : 1"
       inkscape:vp_y="0 : 1000 : 0"
       inkscape:vp_x="0 : 6 : 1"
       sodipodi:type="inkscape:persp3d" />
    <inkscape:perspective
       id="perspective2842"
       inkscape:persp3d-origin="0.5 : 0.33333333 : 1"
       inkscape:vp_z="1 : 0.5 : 1"
       inkscape:vp_y="0 : 1000 : 0"
       inkscape:vp_x="0 : 0.5 : 1"
       sodipodi:type="inkscape:persp3d" />
    <inkscape:perspective
       id="perspective2864"
       inkscape:persp3d-origin="0.5 : 0.33333333 : 1"
       inkscape:vp_z="1 : 0.5 : 1"
       inkscape:vp_y="0 : 1000 : 0"
       inkscape:vp_x="0 : 0.5 : 1"
       sodipodi:type="inkscape:persp3d" />
    <inkscape:perspective
       id="perspective2824"
       inkscape:persp3d-origin="0.5 : 0.33333333 : 1"
       inkscape:vp_z="1 : 0.5 : 1"
       inkscape:vp_y="0 : 1000 : 0"
       inkscape:vp_x="0 : 0.5 : 1"
       sodipodi:type="inkscape:persp3d" />
  </defs>
  <g
     id="g1327">
    <path
       d="M 66.275,1.768 C 24.94,1.768 1.704,23.139 1.704,66.804 L 1.704,516.927 C 1.704,557.771 22.599,579.156 63.896,579.156 L 515.92,579.156 C 557.227,579.156 578.149,558.841 578.149,516.927 L 578.149,66.804 C 578.149,24.203 557.227,1.768 514.628,1.768 C 514.624,1.768 66.133,1.625 66.275,1.768 z "
       style="fill:#111;stroke:#eee;stroke-width:3.40799999"
       id="path1329" />
  </g>
  <g
     id="layer3"
     inkscape:label="Layout"
     style="display:none;stroke:#757575;stroke-opacity:1"
     transform="matrix(48.14969,0,0,48.14969,-536.27327,-33.306752)">
    <rect
       style="fill:none;stroke:#757575;stroke-width:0.10000000000000001;stroke-miterlimit:4;stroke-dasharray:none;stroke-opacity:1;display:inline"
       id="rect4134"
       width="10"
       height="10"
       x="1"
       y="1" />
    <rect
       style="fill:none;stroke:#757575;stroke-width:0.10000000000000001;stroke-miterlimit:4;stroke-dasharray:none;stroke-opacity:1;display:inline"
       id="rect4136"
       width="8"
       height="8"
       x="2"
       y="2" />
  </g>
  <path
     style="fill:#ffffff;fill-opacity:1;fill-rule:evenodd;stroke:#ffffff;stroke-width:17.68085098;stroke-linecap:round;stroke-linejoin:round;stroke-miterlimit:4;stroke-opacity:1;stroke-dasharray:none"
     d="m 497.14647,118.95533 22.78286,0 0,329.24205 -22.54495,0 -0.23791,-329.24205 z"
     id="path2459-9"
     sodipodi:nodetypes="ccccc"
     inkscape:connector-curvature="0" />
  <path
     style="fill:#ffffff;fill-opacity:1;fill-rule:evenodd;stroke:#ffffff;stroke-width:17.70745468;stroke-linecap:round;stroke-linejoin:round;stroke-miterlimit:4;stroke-opacity:1;stroke-dasharray:none"
     d="m 60.122867,117.25948 22.678456,0 0,331.75393 -22.441613,0 -0.236843,-331.75393 z"
     id="path2459-9-2"
     sodipodi:nodetypes="ccccc"
     inkscape:connector-curvature="0" />
  <g
     id="g4862"
     transform="matrix(2.7388649,0,0,1.0836106,-503.97195,-21.127363)" />
  <g
     style="font-size:40px;font-style:normal;font-weight:normal;line-height:125%;letter-spacing:0px;word-spacing:0px;fill-opacity:1;stroke:none;font-family:Bitstream Vera Sans"
     id="text4855"
     transform="matrix(1.8049556,0,0,1.4255971,-168.99655,587.82601)" />
  <path
     style="opacity:0.01;fill:#ffffff;fill-opacity:1;stroke:none"
     d="M 500.375,37.0625 C 357.22372,38.349307 214.03916,35.918642 70.90625,38.375 55.944617,42.284431 49.444769,59.859297 51.875,74 53.43233,176.81248 50.454173,279.69554 53.46875,382.46875 58.216363,397.11054 75.928168,402.88464 90,400 c 140.03878,-0.47958 280.10246,0.96882 420.125,-0.8125 15.27991,-3.97416 22.09996,-22.04385 18.9375,-36.46875 -0.54604,-102.2416 1.14023,-204.55393 -0.96875,-306.75 C 525.20182,43.879944 512.29256,36.492491 500.375,37.0625 z"
     id="rect6923"
     inkscape:connector-curvature="0" />
  <path
     style="opacity:0.75;color:#000000;fill:#ffffff;fill-opacity:1;stroke:none;stroke-width:10;marker:none;visibility:visible;display:inline;overflow:visible;enable-background:accumulate"
     d="M 500.375 97.0625 C 357.22372 98.349307 214.03916 95.918642 70.90625 98.375 C 55.944617 102.28443 49.444769 119.8593 51.875 134 C 53.43233 236.81248 50.454173 339.69554 53.46875 442.46875 C 58.216363 457.11054 75.928168 462.88464 90 460 C 230.03878 459.52042 370.10246 460.96882 510.125 459.1875 C 525.40491 455.21334 532.22496 437.14365 529.0625 422.71875 C 528.51646 320.47715 530.20273 218.16482 528.09375 115.96875 C 525.20182 103.87994 512.29256 96.492491 500.375 97.0625 z M 176.09375 187.90625 L 218 187.90625 C 218.97651 187.90643 219.75776 188.05097 220.34375 188.34375 C 221.02729 188.6369 221.66401 189.21503 222.25 190.09375 C 222.93354 190.97284 223.65619 192.24627 224.4375 193.90625 C 225.21869 195.46893 226.20306 197.55096 227.375 200.1875 L 285.65625 332.3125 L 341.625 200.1875 C 342.89435 197.25799 343.93732 195.03143 344.71875 193.46875 C 345.49982 191.80877 346.16388 190.56268 346.75 189.78125 C 347.43341 188.90253 348.07013 188.383 348.65625 188.1875 C 349.33966 187.99237 350.12091 187.90643 351 187.90625 L 392.90625 187.90625 L 392.90625 194.1875 C 390.07399 194.18768 386.949 194.62127 383.53125 195.5 C 380.11307 196.37908 376.64041 197.65252 373.125 199.3125 L 374.59375 357.21875 C 374.59354 358.39064 376.35916 359.8672 379.875 361.625 C 383.48806 363.28517 388.78103 364.78907 395.8125 366.15625 L 395.8125 372.46875 L 329.46875 372.46875 L 329.46875 366.15625 C 336.1092 364.78907 341.51936 363.34376 345.71875 361.78125 C 350.01544 360.12111 352.18731 358.58595 352.1875 357.21875 L 350.84375 219.09375 C 350.74591 219.38687 350.60138 219.73453 350.40625 220.125 L 286.40625 372.46875 L 279.21875 372.46875 L 213.59375 220.25 L 212.28125 357.21875 C 212.2812 358.39064 214.04683 359.8672 217.5625 361.625 C 221.17573 363.28517 226.49994 364.78907 233.53125 366.15625 L 233.53125 372.46875 L 174.625 372.46875 L 174.625 366.15625 C 181.36327 364.78907 186.60154 363.34376 190.3125 361.78125 C 194.02341 360.12111 195.87497 358.58595 195.875 357.21875 L 197.34375 200.0625 C 193.63278 197.81658 189.87107 196.28143 186.0625 195.5 C 182.35155 194.62127 179.02342 194.18768 176.09375 194.1875 L 176.09375 187.90625 z "
     id="rect3018-6-8" />
  <path
     style="fill:#ffffff;fill-opacity:1;fill-rule:evenodd;stroke:#ffffff;stroke-width:19.79100609;stroke-linecap:round;stroke-linejoin:round;stroke-miterlimit:4;stroke-opacity:1;stroke-dasharray:none"
     d="m 518.02261,105.3063 0.0577,20.58161 -456.635662,1.38807 -0.05714,-20.36666 456.635062,-1.60302 z"
     id="path2459-9-2-4"
     sodipodi:nodetypes="ccccc"
     inkscape:connector-curvature="0" />
  <path
     style="fill:#ffffff;fill-opacity:1;fill-rule:evenodd;stroke:#ffffff;stroke-width:19.72849083;stroke-linecap:round;stroke-linejoin:round;stroke-miterlimit:4;stroke-opacity:1;stroke-dasharray:none"
     d="m 515.43618,428.3679 0.0572,20.64018 -452.467912,1.39202 -0.05661,-20.42462 452.467322,-1.60758 z"
     id="path2459-9-2-4-5"
     sodipodi:nodetypes="ccccc"
     inkscape:connector-curvature="0" />
</svg>
