<?xml version="1.0" encoding="UTF-8" standalone="no"?>
<!-- Created with Inkscape (http://www.inkscape.org/) -->

<svg
   xmlns:dc="http://purl.org/dc/elements/1.1/"
   xmlns:cc="http://creativecommons.org/ns#"
   xmlns:rdf="http://www.w3.org/1999/02/22-rdf-syntax-ns#"
   xmlns:svg="http://www.w3.org/2000/svg"
   xmlns="http://www.w3.org/2000/svg"
   xmlns:sodipodi="http://sodipodi.sourceforge.net/DTD/sodipodi-0.dtd"
   xmlns:inkscape="http://www.inkscape.org/namespaces/inkscape"
   version="1.0"
   width="580"
   height="580"
   id="svg2"
   sodipodi:version="0.32"
   inkscape:version="0.47 r22583"
   sodipodi:docname="deli.svg"
   inkscape:output_extension="org.inkscape.output.svg.inkscape">
  <metadata
     id="metadata10">
    <rdf:RDF>
      <cc:Work
         rdf:about="">
        <dc:format>image/svg+xml</dc:format>
        <dc:type
           rdf:resource="http://purl.org/dc/dcmitype/StillImage" />
        <cc:license
           rdf:resource="http://web.resource.org/cc/PublicDomain" />
        <dc:language>en</dc:language>
        <dc:title></dc:title>
      </cc:Work>
    </rdf:RDF>
  </metadata>
  <sodipodi:namedview
     inkscape:window-height="549"
     inkscape:window-width="1024"
     inkscape:pageshadow="2"
     inkscape:pageopacity="0.0"
     guidetolerance="10.0"
     gridtolerance="10.0"
     objecttolerance="10.0"
     borderopacity="1.0"
     bordercolor="#666666"
     pagecolor="#ffffff"
     id="base"
     showgrid="false"
     inkscape:zoom="1"
     inkscape:cx="197.85157"
     inkscape:cy="404.52717"
     inkscape:window-x="-2"
     inkscape:window-y="26"
     inkscape:current-layer="svg2"
     inkscape:window-maximized="1" />
  <defs
     id="defs4">
    <clipPath
       id="clipoutline2"
       clipPathUnits="userSpaceOnUse">
      <path
         d="M 55.8,12 L 56.56,12.16 C 65.4,9.22 85.24,20.8 80.82,31.12 C 79.7,32.74 79.89,35.62 81.24,37.43 L 56.43,62.25 C 55.04,60.86 51.95,60.89 50.53,62.25 L 9.5,101.63 C 5.76,105.22 8.7,108.27 10.28,109.88 L 17.64,117.24 C 19.25,118.84 23.5,121 26.52,117.8 L 65.24,76.99 C 66.59,75.57 66.6,72.52 65.24,71.12 C 65.24,71.12 65.25,71.1 65.24,71.1 L 90.15,46.2 C 92.78,48.57 95.263827,48.774854 97.62,48.13 C 102.17057,46.884568 104.70725,51.336643 107.43,54.59 L 106.2,55.8 C 104.38,57.64 104.55,60.74 106.59,62.78 C 108.63,64.82 111.74,64.99 113.56,63.17 L 121.7,55.04 C 123.52,53.2 123.35,50.1 121.3,48.07 C 119.46,46.22 116.79,45.98 114.93,47.3 C 109.35,41.04 112.28,40.1 104.92,31.95 L 91.13,17.86 C 81.2,8.12 68.3,8.13 55.8,12 z"
         id="outline2" />
    </clipPath>
    <clipPath
       id="clipoutline1"
       clipPathUnits="userSpaceOnUse">
      <path
         d="M 22.42,17.2 L 35.38,30.15 L 32.88,38.93 L 24.1,41.43 L 11.14,28.47 L 5.28,34.33 L 20.17,55.79 L 37.73,52.45 L 99.36,118.07 C 108.8,127.58 121.53,113.32 112.7,105.2 L 46.85,42.92 L 50.86,25.16 L 28.72,10.89 L 22.42,17.2 z M 103.48,109.17 C 105.16,107.49 107.88,107.49 109.56,109.17 C 111.24,110.85 111.24,113.57 109.56,115.25 C 107.88,116.92 105.16,116.92 103.48,115.25 C 101.8,113.57 101.8,110.85 103.48,109.17 z"
         id="outline1" />
    </clipPath>
    <inkscape:perspective
       sodipodi:type="inkscape:persp3d"
       inkscape:vp_x="0 : 290 : 1"
       inkscape:vp_y="0 : 1000 : 0"
       inkscape:vp_z="580 : 290 : 1"
       inkscape:persp3d-origin="290 : 193.33333 : 1"
       id="perspective12" />
    <style
       type="text/css"
       id="style6">
   
    .fil0 {fill:#EF7900}
   
  </style>
    <inkscape:perspective
       id="perspective6807"
       inkscape:persp3d-origin="29.116032 : 19.410688 : 1"
       inkscape:vp_z="58.232063 : 29.116032 : 1"
       inkscape:vp_y="0 : 1000 : 0"
       inkscape:vp_x="0 : 29.116032 : 1"
       sodipodi:type="inkscape:persp3d" />
    <inkscape:perspective
       id="perspective6954"
       inkscape:persp3d-origin="290 : 193.33333 : 1"
       inkscape:vp_z="580 : 290 : 1"
       inkscape:vp_y="0 : 1000 : 0"
       inkscape:vp_x="0 : 290 : 1"
       sodipodi:type="inkscape:persp3d" />
    <marker
       viewBox="0 0 10 10"
       refY="5"
       refX="10"
       orient="auto"
       markerWidth="4"
       markerUnits="strokeWidth"
       markerHeight="3"
       id="ArrowStart">
      <path
         id="path2295"
         d="M 10 0 L 0 5 L 10 10 z" />
    </marker>
    <marker
       viewBox="0 0 10 10"
       refY="5"
       refX="0"
       orient="auto"
       markerWidth="4"
       markerUnits="strokeWidth"
       markerHeight="3"
       id="ArrowEnd">
      <path
         id="path2292"
         d="M 0 0 L 10 5 L 0 10 z" />
    </marker>
    <inkscape:perspective
       id="perspective7597"
       inkscape:persp3d-origin="178.5405 : 158.483 : 1"
       inkscape:vp_z="357.08099 : 237.7245 : 1"
       inkscape:vp_y="0 : 1000 : 0"
       inkscape:vp_x="0 : 237.7245 : 1"
       sodipodi:type="inkscape:persp3d" />
    <inkscape:perspective
       id="perspective3650"
       inkscape:persp3d-origin="0.5 : 0.33333333 : 1"
       inkscape:vp_z="1 : 0.5 : 1"
       inkscape:vp_y="0 : 1000 : 0"
       inkscape:vp_x="0 : 0.5 : 1"
       sodipodi:type="inkscape:persp3d" />
    <inkscape:perspective
       id="perspective2846"
       inkscape:persp3d-origin="0.5 : 0.33333333 : 1"
       inkscape:vp_z="1 : 0.5 : 1"
       inkscape:vp_y="0 : 1000 : 0"
       inkscape:vp_x="0 : 0.5 : 1"
       sodipodi:type="inkscape:persp3d" />
    <inkscape:perspective
       id="perspective2861"
       inkscape:persp3d-origin="0.5 : 0.33333333 : 1"
       inkscape:vp_z="1 : 0.5 : 1"
       inkscape:vp_y="0 : 1000 : 0"
       inkscape:vp_x="0 : 0.5 : 1"
       sodipodi:type="inkscape:persp3d" />
  </defs>
  <g
     id="g1327">
    <path
       d="M 66.275,1.768 C 24.94,1.768 1.704,23.139 1.704,66.804 L 1.704,516.927 C 1.704,557.771 22.598,579.156 63.896,579.156 L 515.92,579.156 C 557.227,579.156 578.149,558.84 578.149,516.927 L 578.149,66.804 C 578.149,24.203 557.227,1.768 514.627,1.768 C 514.624,1.768 66.133,1.625 66.275,1.768 z"
       style="fill:#111111;stroke:#eeeeee;stroke-width:3.40799999"
       id="path1329" />
  </g>
  <g
     id="g2319"
     transform="translate(879.29125,36.805119)">
    <path
       id="path2323"
       style="fill:#ffffff;stroke:none"
       d="" />
  </g>
  <g
     id="g2325"
     transform="translate(879.29125,36.805119)">
    <path
       id="path2329"
       style="fill:#ffffff;stroke:none"
       d="" />
  </g>
  <g
     transform="translate(166.42563,67.96431)"
     id="g13" />
  <g
     id="g3712"
     transform="matrix(0.94851148,0.31674273,-0.31674273,0.94851148,77.33427,-28.537135)">
    <path
       sodipodi:nodetypes="ccccssccccccscccczzssscccccccccccccccccccccccccccccccccccccccccccccccccccccccccccccccccccccccccccsscccsscccc"
       style="fill:#ffffff;fill-opacity:1;stroke:#ffffff;stroke-width:1.20444894;stroke-opacity:1"
       id="path3"
       d="m 273.15633,195.4078 c -1.63983,2.14245 -2.42929,4.36636 -2.84966,6.35609 -0.69661,3.50978 -0.47578,6.57207 -0.14943,9.57425 0.52748,4.45495 1.51669,8.78688 2.17226,12.35857 0.32918,1.7702 0.5931,3.3359 0.6827,4.42015 0.0487,0.53904 0.0543,0.95828 0.0456,1.17499 -2.3e-4,0.0378 -0.0148,0.0593 -0.0161,0.0826 l -3.98122,15.60191 c -0.3255,0.40909 -0.61726,0.802 -0.94123,1.22292 -12.30424,16.03209 -18.6858,33.93814 -24.85117,50.74031 -6.75672,18.55393 -12.10815,37.12247 -20.39298,53.64913 -3.78547,7.60407 -9.16075,15.32663 -14.53755,23.57843 -5.35501,8.261 -10.76559,17.06815 -14.11628,27.22742 -2.98013,9.03403 -4.78598,17.2365 -5.71685,26.80511 -0.39063,4.2043 -0.15426,8.34779 -0.22583,12.08025 -0.009,3.67542 -0.47955,6.85492 -0.9407,7.82533 l -0.37785,5.55125 c 0,0 -0.0181,5.2485 0.13233,8.09442 l 0.60577,11.45845 c 0.60878,11.51548 13.91485,25.35837 22.32103,31.82215 9.5e-4,7.4e-4 0.007,0.005 0.0298,0.0229 0.0229,0.0176 0.0773,0.0595 0.1193,0.0918 12.92317,9.85064 28.31618,15.04619 44.28467,16.70029 16.0378,1.65881 32.74437,-0.16686 48.89156,-4.40461 32.31415,-8.61378 63.13274,-26.93938 82.41882,-51.79206 3.74613,-4.87123 7.05754,-10.01888 9.77577,-15.41677 2.57764,-5.01971 3.42345,-10.45474 2.98518,-15.41858 -0.27191,-3.11833 0.46203,-7.98096 -0.58922,-10.71271 0.66985,-2.85101 -0.57776,-3.98183 -1.03544,-6.92397 -0.64171,-4.3164 -2.17939,-8.00238 -4.1665,-12.42107 -3.35365,-7.34905 -6.58157,-15.64242 -10.84855,-23.54849 -4.95262,-9.08279 -11.94829,-16.36271 -18.47916,-23.19941 -6.55858,-6.79875 -12.69304,-13.16508 -16.4492,-19.35722 -3.91312,-6.37526 -5.74942,-13.63215 -7.18632,-22.01223 -1.46004,-8.34013 -2.43096,-17.66679 -5.49354,-27.35888 -2.44578,-7.59259 -3.79321,-15.36959 -6.73841,-23.51985 -2.55185,-7.14077 -6.73378,-14.56343 -13.80279,-20.88262 l 2.25476,-12.98849 -0.20846,-1.39535 c -0.21897,-1.76136 -0.0234,-2.89474 0.54509,-4.4726 0.82995,-2.34019 2.98569,-5.38353 5.56762,-9.3938 2.48519,-3.94185 5.51631,-9.45647 5.34925,-16.63883 -0.0801,-2.97067 -0.47282,-5.73404 -1.46879,-8.39741 -0.97652,-2.63928 -2.69581,-5.22481 -5.10654,-7.06504 -1.9544,-1.51485 -4.26285,-2.43739 -6.37905,-2.81983 -3.74781,-0.65788 -6.88743,-0.0399 -9.69154,0.80521 -4.1996,1.32133 -7.84964,3.38746 -11.09726,5.47036 -1.40649,0.9131 -2.74263,1.83208 -3.94106,2.7138 -1.88581,-0.44677 -3.74021,-0.68701 -5.74395,-0.62115 -1.89042,0.0786 -3.91958,0.48356 -5.8294,1.40291 -1.91179,0.90416 -3.63155,2.35166 -4.8295,3.92986 z m 6.95198,5.7781 c 1.58454,-2.37659 4.94986,-2.99745 11.26804,-0.44679 6.7966,-5.65133 26.35253,-19.71107 26.82285,-0.53902 0.29044,11.79898 -13.19869,18.15395 -11.35438,31.53796 l -2.93507,16.83455 c -0.23326,-0.16889 -0.46826,-0.33107 -0.70895,-0.49823 -1.23264,3.87844 -2.29631,8.01573 -4.12702,11.59499 -3.5347,-2.00312 -7.18118,-3.68379 -10.87411,-5.18707 -0.87096,3.04122 -2.24613,6.50255 -3.6146,9.13959 -3.63443,-4.20771 -6.17953,-7.7385 -7.77176,-12.48858 l 5.05632,-19.71407 c 1.62648,-6.4792 -5.81065,-24.15987 -1.76128,-30.23338 z m -77.15214,241.12895 c 0.40283,-0.55814 0.84184,-1.09329 1.26263,-1.64051 10.06363,-13.02217 25,-23.20364 36.92381,-30.57187 9.70669,-5.97257 18.04932,-10.65967 27.07883,-13.83097 9.02334,-3.17906 18.64589,-4.7354 30.60135,-4.70782 18.73748,0.0509 40.69504,2.00072 59.01047,10.03296 4.44129,1.96069 9.63604,4.99716 14.59316,8.8094 5.45771,4.22032 10.64847,9.33595 13.9695,15.35886 3.32787,5.91724 4.62969,13.42276 1.07085,20.3927 -2.43491,4.83623 -5.41617,9.50162 -8.83906,13.95287 -17.64482,22.84661 -47.00595,40.51379 -77.5987,48.61492 -30.54021,8.02302 -62.69544,6.59451 -85.47037,-10.82948 -7.37673,-5.67451 -13.67127,-13.05621 -18.37157,-22.16668 l -2.06702,-11.13766 1.0399,-9.74384 c 1.64039,-4.46401 3.97621,-8.62608 6.79622,-12.53288 z m 46.06959,9.99968 c 3.44381,-4.40931 8.03866,-8.30928 13.67782,-9.56375 2.1955,-0.45326 5.23634,-0.69704 8.58072,-0.47275 3.32235,0.27267 6.92178,0.89426 10.05536,3.227 1.26763,0.96957 2.45049,2.30743 3.14982,3.99166 0.95929,2.28253 0.89267,4.75654 0.29193,6.77919 -0.59334,2.0466 -1.62437,3.76883 -2.79889,5.30275 -3.22395,4.14538 -7.6844,7.16425 -9.92543,8.69958 l -0.29605,0.19961 -11.80173,5.21314 -0.48427,0.19723 -0.52098,0.12149 c -4.62178,0.75017 -8.57684,0.36897 -11.65982,-1.94459 -1.77343,-1.34517 -2.9352,-3.32757 -3.39733,-5.27457 -0.47497,-1.95994 -0.39104,-3.88675 -0.026,-5.76707 0.7524,-3.7541 2.62897,-7.4033 5.1549,-10.70889 z m 6.68135,5.14234 c -1.41084,1.8232 -2.4793,3.81226 -3.08811,5.55511 -0.6293,1.74379 -0.70221,3.1863 -0.52884,3.77266 0.11924,0.40791 0.18316,0.45369 0.34637,0.59906 0.20858,0.21677 1.51884,0.80459 4.61034,0.36612 l 10.63578,-4.68562 c 2.07628,-1.40223 5.68418,-4.06924 7.61852,-6.62791 0.75063,-0.96343 1.22533,-1.87592 1.39367,-2.48959 0.1624,-0.63952 0.10183,-0.86889 -0.0226,-1.20482 -0.0703,-0.15746 -0.15617,-0.30411 -0.47489,-0.55549 -0.73683,-0.64614 -3.02687,-1.37934 -5.48439,-1.5138 -2.43357,-0.18138 -5.05099,0.0904 -6.26056,0.35862 -2.64554,0.49295 -6.23247,3.09172 -8.74526,6.42566 z" />
    <path
       id="path6439"
       d="m 254.14079,517.97215 42.82282,-2.99833 39.4494,-15.7235 33.21185,-24.06934 22.15191,-25.49153 1.71699,-15.391 -6.38231,-16.05385 -34.24841,-34.46252 -71.37501,-11.88688 -52.47111,30.01034 -32.21123,33.95536 -6.85742,22.06986 2.14776,20.89773 15.01943,18.64994 24.53917,14.83521 22.48616,5.65851 z"
       style="opacity:0.1;fill:#ffffff;fill-opacity:1;fill-rule:evenodd;stroke:none" />
    <path
       id="path6441"
       d="m 269.33235,258.71947 7.1772,-28.40743 -1.63142,-30.12267 12.35887,-6.18753 21.92686,-7.43294 11.18144,4.55435 1.02388,14.46188 -10.35588,19.37725 -2.45661,36.09219 -24.06017,24.02285 -15.16417,-26.35795 z"
       style="opacity:0.1;fill:#ffffff;fill-opacity:1;fill-rule:evenodd;stroke:none" />
  </g>
  <g
     id="g3755">
    <rect
       transform="matrix(0.31527798,0.94899936,-0.92941458,0.36903732,0,0)"
       y="-243.47462"
       x="136.79742"
       height="175.36998"
       width="141.09163"
       id="rect2848"
       style="fill:#ffffff;fill-opacity:0.35294119;fill-rule:nonzero;stroke:#ffffff;stroke-width:11.03818702999999957;stroke-miterlimit:4;stroke-opacity:1;stroke-dasharray:none" />
    <path
       sodipodi:nodetypes="cccc"
       id="path3636"
       d="M 270.72386,28.8639 C 242.0514,42.790354 156.18093,74.571041 98.90946,97.42461 L 43.899043,78.385751 270.72386,28.8639 z"
       style="fill:#ffffff;fill-opacity:0.35294119;fill-rule:nonzero;stroke:#ffffff;stroke-width:11.38186645999999946;stroke-miterlimit:4;stroke-opacity:1;stroke-dasharray:none" />
    <path
       sodipodi:nodetypes="ccccc"
       id="rect3639"
       d="M 31.183767,85.331862 99.437487,103.24182 139.56089,238.56374 72.026285,221.43856 31.183767,85.331862 z"
       style="fill:#ffffff;fill-opacity:0.35294119;fill-rule:nonzero;stroke:#ffffff;stroke-width:11.48435019999999973;stroke-miterlimit:4;stroke-opacity:1;stroke-dasharray:none" />
  </g>
  <g
     id="g3738"
     transform="translate(-9,141)">
    <path
       id="path3845"
       d="m 460.2506,134.24175 0,100.68084"
       style="fill:none;stroke:#ffffff;stroke-width:19.7094059;stroke-linecap:round;stroke-linejoin:miter;stroke-miterlimit:4;stroke-opacity:1;stroke-dasharray:none" />
    <path
       sodipodi:nodetypes="csssc"
       id="path3878"
       d="m 533.413,240.48795 c 0,10.60562 -43.96364,19.20318 -73.52451,19.20318 -29.56087,0 -73.52449,-8.59756 -73.52449,-19.20318 0,-10.60562 43.96362,-19.20317 73.52449,-19.20317 29.56087,0 73.52451,8.59755 73.52451,19.20317 z"
       style="fill:#ffffff;fill-opacity:1;stroke:none" />
    <g
       transform="matrix(0.98465568,0,0,1.0340242,70.669931,-281.23004)"
       id="g4243">
      <path
         style="opacity:0.75;fill:#ffffff;fill-opacity:1;stroke:#ffffff;stroke-width:8.12921333;stroke-linecap:round;stroke-linejoin:round;stroke-miterlimit:4;stroke-opacity:1;stroke-dasharray:none;stroke-dashoffset:0"
         d="m 294.51724,317.23424 c -0.0322,1.29792 -0.0498,2.59888 -0.0498,3.90984 0,51.92663 70.90909,93.99639 102.45312,93.99639 31.54403,0 102.45306,-42.06976 102.45306,-93.99639 0,-1.31096 -0.0174,-2.61192 -0.0498,-3.90984 -42.09515,-10.30179 -178.66706,-6.77987 -204.80661,0 l 0,0 9.8e-4,0 -10e-4,0 0,0 2e-5,0 z"
         id="path3840-8"
         sodipodi:nodetypes="csssccccccc" />
      <path
         style="fill:#ffffff;fill-opacity:1;stroke:#ffffff;stroke-width:0;stroke-linecap:round;stroke-linejoin:round;stroke-miterlimit:4;stroke-opacity:1;stroke-dasharray:none;stroke-dashoffset:0"
         d="m 294.10389,317.79387 c -0.0323,1.29792 -0.0498,2.59889 -0.0498,3.90983 0,51.92662 70.90878,93.9964 102.4528,93.9964 31.54403,0 102.45237,-42.06978 102.45237,-93.9964 0,-1.31094 -0.0174,-2.61191 -0.0498,-3.90983 -31.85198,9.91214 -156.53756,16.3535 -204.80557,0 l -4e-5,0 0,0 0,0 -4e-5,0 4e-5,0 4e-5,0 z"
         id="path3840"
         sodipodi:nodetypes="cssscccccccc" />
    </g>
  </g>
</svg>
