<?xml version="1.0" encoding="UTF-8" standalone="no"?>
<!-- Created with Inkscape (http://www.inkscape.org/) -->

<svg
   xmlns:dc="http://purl.org/dc/elements/1.1/"
   xmlns:cc="http://creativecommons.org/ns#"
   xmlns:rdf="http://www.w3.org/1999/02/22-rdf-syntax-ns#"
   xmlns:svg="http://www.w3.org/2000/svg"
   xmlns="http://www.w3.org/2000/svg"
   xmlns:sodipodi="http://sodipodi.sourceforge.net/DTD/sodipodi-0.dtd"
   xmlns:inkscape="http://www.inkscape.org/namespaces/inkscape"
   version="1.0"
   width="580"
   height="580"
   id="svg2"
   sodipodi:version="0.32"
   inkscape:version="0.47 r22583"
   sodipodi:docname="waterfall.svg"
   inkscape:output_extension="org.inkscape.output.svg.inkscape">
  <metadata
     id="metadata2975">
    <rdf:RDF>
      <cc:Work
         rdf:about="">
        <dc:format>image/svg+xml</dc:format>
        <dc:type
           rdf:resource="http://purl.org/dc/dcmitype/StillImage" />
        <cc:license
           rdf:resource="http://web.resource.org/cc/PublicDomain" />
        <dc:language>en</dc:language>
        <dc:title />
      </cc:Work>
    </rdf:RDF>
  </metadata>
  <sodipodi:namedview
     inkscape:window-height="720"
     inkscape:window-width="1024"
     inkscape:pageshadow="2"
     inkscape:pageopacity="0.0"
     guidetolerance="10.0"
     gridtolerance="10.0"
     objecttolerance="10.0"
     borderopacity="1.0"
     bordercolor="#666666"
     pagecolor="#ffffff"
     id="base"
     inkscape:zoom="1"
     inkscape:cx="293.51075"
     inkscape:cy="394.39674"
     inkscape:window-x="-4"
     inkscape:window-y="-3"
     inkscape:current-layer="svg2"
     showgrid="false"
     inkscape:window-maximized="1"
     inkscape:snap-grids="true" />
  <defs
     id="defs4">
    <inkscape:perspective
       sodipodi:type="inkscape:persp3d"
       inkscape:vp_x="0 : 290 : 1"
       inkscape:vp_y="0 : 1000 : 0"
       inkscape:vp_z="580 : 290 : 1"
       inkscape:persp3d-origin="290 : 193.33333 : 1"
       id="perspective2441" />
    <inkscape:perspective
       id="perspective3452"
       inkscape:persp3d-origin="30 : 20 : 1"
       inkscape:vp_z="60 : 30 : 1"
       inkscape:vp_y="0 : 1000 : 0"
       inkscape:vp_x="0 : 30 : 1"
       sodipodi:type="inkscape:persp3d" />
    <symbol
       viewBox="244.5 110 489 219.9"
       id="symbol-university">
      <path
         id="path4460"
         d="M79,43l57,119c0,0,21-96,104-96s124,106,124,106l43-133l82-17L0,17L79,43z" />
      <path
         id="path4462"
         d="M94,176l-21,39"
         stroke-width="20"
         stroke="#000000"
         fill="none" />
      <path
         id="path4464"
         d="M300,19c0,10.5-22.6,19-50.5,19S199,29.5,199,19s22.6-19,50.5-19S300,8.5,300,19z" />
      <path
         id="path4466"
         d="M112,216l-16-38L64,88c0,0-9-8-4-35s16-24,16-24"
         stroke-width="20"
         stroke="#000000"
         ill="none" />
    </symbol>
    <inkscape:perspective
       id="perspective4471"
       inkscape:persp3d-origin="372.04724 : 350.78739 : 1"
       inkscape:vp_z="744.09448 : 526.18109 : 1"
       inkscape:vp_y="0 : 1000 : 0"
       inkscape:vp_x="0 : 526.18109 : 1"
       sodipodi:type="inkscape:persp3d" />
    <inkscape:perspective
       id="perspective4668"
       inkscape:persp3d-origin="6 : 4 : 1"
       inkscape:vp_z="12 : 6 : 1"
       inkscape:vp_y="0 : 1000 : 0"
       inkscape:vp_x="0 : 6 : 1"
       sodipodi:type="inkscape:persp3d" />
    <inkscape:perspective
       id="perspective3657"
       inkscape:persp3d-origin="0.5 : 0.33333333 : 1"
       inkscape:vp_z="1 : 0.5 : 1"
       inkscape:vp_y="0 : 1000 : 0"
       inkscape:vp_x="0 : 0.5 : 1"
       sodipodi:type="inkscape:persp3d" />
    <inkscape:perspective
       id="perspective3679"
       inkscape:persp3d-origin="0.5 : 0.33333333 : 1"
       inkscape:vp_z="1 : 0.5 : 1"
       inkscape:vp_y="0 : 1000 : 0"
       inkscape:vp_x="0 : 0.5 : 1"
       sodipodi:type="inkscape:persp3d" />
    <inkscape:perspective
       id="perspective3701"
       inkscape:persp3d-origin="0.5 : 0.33333333 : 1"
       inkscape:vp_z="1 : 0.5 : 1"
       inkscape:vp_y="0 : 1000 : 0"
       inkscape:vp_x="0 : 0.5 : 1"
       sodipodi:type="inkscape:persp3d" />
    <inkscape:perspective
       id="perspective3723"
       inkscape:persp3d-origin="0.5 : 0.33333333 : 1"
       inkscape:vp_z="1 : 0.5 : 1"
       inkscape:vp_y="0 : 1000 : 0"
       inkscape:vp_x="0 : 0.5 : 1"
       sodipodi:type="inkscape:persp3d" />
    <inkscape:perspective
       id="perspective3745"
       inkscape:persp3d-origin="0.5 : 0.33333333 : 1"
       inkscape:vp_z="1 : 0.5 : 1"
       inkscape:vp_y="0 : 1000 : 0"
       inkscape:vp_x="0 : 0.5 : 1"
       sodipodi:type="inkscape:persp3d" />
    <inkscape:perspective
       id="perspective3767"
       inkscape:persp3d-origin="0.5 : 0.33333333 : 1"
       inkscape:vp_z="1 : 0.5 : 1"
       inkscape:vp_y="0 : 1000 : 0"
       inkscape:vp_x="0 : 0.5 : 1"
       sodipodi:type="inkscape:persp3d" />
    <inkscape:perspective
       id="perspective3789"
       inkscape:persp3d-origin="0.5 : 0.33333333 : 1"
       inkscape:vp_z="1 : 0.5 : 1"
       inkscape:vp_y="0 : 1000 : 0"
       inkscape:vp_x="0 : 0.5 : 1"
       sodipodi:type="inkscape:persp3d" />
    <inkscape:perspective
       id="perspective3822"
       inkscape:persp3d-origin="0.5 : 0.33333333 : 1"
       inkscape:vp_z="1 : 0.5 : 1"
       inkscape:vp_y="0 : 1000 : 0"
       inkscape:vp_x="0 : 0.5 : 1"
       sodipodi:type="inkscape:persp3d" />
    <inkscape:perspective
       id="perspective3844"
       inkscape:persp3d-origin="0.5 : 0.33333333 : 1"
       inkscape:vp_z="1 : 0.5 : 1"
       inkscape:vp_y="0 : 1000 : 0"
       inkscape:vp_x="0 : 0.5 : 1"
       sodipodi:type="inkscape:persp3d" />
    <inkscape:perspective
       id="perspective3866"
       inkscape:persp3d-origin="0.5 : 0.33333333 : 1"
       inkscape:vp_z="1 : 0.5 : 1"
       inkscape:vp_y="0 : 1000 : 0"
       inkscape:vp_x="0 : 0.5 : 1"
       sodipodi:type="inkscape:persp3d" />
    <inkscape:perspective
       id="perspective3909"
       inkscape:persp3d-origin="0.5 : 0.33333333 : 1"
       inkscape:vp_z="1 : 0.5 : 1"
       inkscape:vp_y="0 : 1000 : 0"
       inkscape:vp_x="0 : 0.5 : 1"
       sodipodi:type="inkscape:persp3d" />
    <inkscape:perspective
       id="perspective2836"
       inkscape:persp3d-origin="0.5 : 0.33333333 : 1"
       inkscape:vp_z="1 : 0.5 : 1"
       inkscape:vp_y="0 : 1000 : 0"
       inkscape:vp_x="0 : 0.5 : 1"
       sodipodi:type="inkscape:persp3d" />
    <inkscape:perspective
       id="perspective2860"
       inkscape:persp3d-origin="0.5 : 0.33333333 : 1"
       inkscape:vp_z="1 : 0.5 : 1"
       inkscape:vp_y="0 : 1000 : 0"
       inkscape:vp_x="0 : 0.5 : 1"
       sodipodi:type="inkscape:persp3d" />
    <inkscape:perspective
       id="perspective2882"
       inkscape:persp3d-origin="0.5 : 0.33333333 : 1"
       inkscape:vp_z="1 : 0.5 : 1"
       inkscape:vp_y="0 : 1000 : 0"
       inkscape:vp_x="0 : 0.5 : 1"
       sodipodi:type="inkscape:persp3d" />
    <inkscape:perspective
       id="perspective3681"
       inkscape:persp3d-origin="0.5 : 0.33333333 : 1"
       inkscape:vp_z="1 : 0.5 : 1"
       inkscape:vp_y="0 : 1000 : 0"
       inkscape:vp_x="0 : 0.5 : 1"
       sodipodi:type="inkscape:persp3d" />
    <inkscape:perspective
       id="perspective3703"
       inkscape:persp3d-origin="0.5 : 0.33333333 : 1"
       inkscape:vp_z="1 : 0.5 : 1"
       inkscape:vp_y="0 : 1000 : 0"
       inkscape:vp_x="0 : 0.5 : 1"
       sodipodi:type="inkscape:persp3d" />
    <inkscape:perspective
       id="perspective3703-4"
       inkscape:persp3d-origin="0.5 : 0.33333333 : 1"
       inkscape:vp_z="1 : 0.5 : 1"
       inkscape:vp_y="0 : 1000 : 0"
       inkscape:vp_x="0 : 0.5 : 1"
       sodipodi:type="inkscape:persp3d" />
    <inkscape:perspective
       id="perspective3734"
       inkscape:persp3d-origin="0.5 : 0.33333333 : 1"
       inkscape:vp_z="1 : 0.5 : 1"
       inkscape:vp_y="0 : 1000 : 0"
       inkscape:vp_x="0 : 0.5 : 1"
       sodipodi:type="inkscape:persp3d" />
    <inkscape:perspective
       id="perspective3756"
       inkscape:persp3d-origin="0.5 : 0.33333333 : 1"
       inkscape:vp_z="1 : 0.5 : 1"
       inkscape:vp_y="0 : 1000 : 0"
       inkscape:vp_x="0 : 0.5 : 1"
       sodipodi:type="inkscape:persp3d" />
    <inkscape:perspective
       id="perspective3756-9"
       inkscape:persp3d-origin="0.5 : 0.33333333 : 1"
       inkscape:vp_z="1 : 0.5 : 1"
       inkscape:vp_y="0 : 1000 : 0"
       inkscape:vp_x="0 : 0.5 : 1"
       sodipodi:type="inkscape:persp3d" />
    <inkscape:perspective
       id="perspective3756-0"
       inkscape:persp3d-origin="0.5 : 0.33333333 : 1"
       inkscape:vp_z="1 : 0.5 : 1"
       inkscape:vp_y="0 : 1000 : 0"
       inkscape:vp_x="0 : 0.5 : 1"
       sodipodi:type="inkscape:persp3d" />
  </defs>
  <g
     id="g1327"
     style="stroke-width:10;stroke-miterlimit:4;stroke-dasharray:none"
     transform="translate(0,2)">
    <path
       d="m 66.275,1.6920515 c -41.335,0 -64.571,21.3709995 -64.571,65.0359995 l 0,450.122999 c 0,40.844 20.895,62.229 62.192,62.229 l 452.024,0 c 41.307,0 62.229,-20.315 62.229,-62.229 l 0,-450.122999 c 0,-42.601 -20.922,-65.0359995 -63.521,-65.0359995 -0.004,0 -448.495,-0.143 -448.353,0 z"
       style="fill:#111111;stroke:#eeeeee;stroke-width:10;stroke-miterlimit:4;stroke-dasharray:none"
       id="path1329" />
  </g>
  <g
     id="layer3"
     inkscape:label="Layout"
     style="display:none;stroke:#757575;stroke-opacity:1"
     transform="matrix(48.14969,0,0,48.14969,-536.27327,-33.306752)">
    <rect
       style="fill:none;stroke:#757575;stroke-width:0.10000000000000001;stroke-miterlimit:4;stroke-dasharray:none;stroke-opacity:1;display:inline"
       id="rect4134"
       width="10"
       height="10"
       x="1"
       y="1" />
    <rect
       style="fill:none;stroke:#757575;stroke-width:0.10000000000000001;stroke-miterlimit:4;stroke-dasharray:none;stroke-opacity:1;display:inline"
       id="rect4136"
       width="8"
       height="8"
       x="2"
       y="2" />
  </g>
  <path
     style="fill:#ffffff;fill-opacity:1;fill-rule:evenodd"
     d="m 65.156255,506.58091 c -0.46183,-0.006 -0.94143,0.0165 -1.40625,0.0312 -15.2705,0.58967 -32.006725,12.38226 -46.937505,13.09375 -0.27162,0.004 -0.54179,0.003 -0.8125,0 l 0,31.3125 c 0.2707,0.003 0.54088,0.004 0.8125,0 14.93078,-0.71148 31.667005,-12.53531 46.937505,-13.125 14.87438,-0.47303 28.16777,10.2989 43.156245,10.59375 15.21407,0.11793 30.64913,-9.97656 46.9375,-9.5625 16.06146,0.23717 32.41131,11.154 48.8125,11.09375 16.11786,-0.35255 31.39021,-12.00962 48.1875,-12.125 12.40782,0 25.74175,6.08784 38.5,9.4375 l 0,-31.28125 c -12.75881,-3.34956 -26.09159,-9.4375 -38.5,-9.4375 -16.79729,0.11921 -32.06965,11.74123 -48.1875,12.09375 -16.40119,0.0602 -32.75105,-10.85659 -48.8125,-11.09375 -16.28837,-0.41408 -31.72341,9.68043 -46.9375,9.5625 -14.518865,-0.28564 -27.433195,-10.39297 -41.749995,-10.59375 z"
     id="path121" />
  <path
     style="fill:#ffffff;fill-opacity:1;fill-rule:evenodd"
     d="m 338.15625,502.78045 c -0.46183,-0.006 -0.94143,0.0165 -1.40625,0.0312 -15.2705,0.58967 -32.00673,12.38226 -46.9375,13.09375 -0.27162,0.004 -0.5418,0.003 -0.8125,0 l 0,31.3125 c 0.2707,0.003 0.54088,0.004 0.8125,0 14.93077,-0.71148 31.667,-12.53531 46.9375,-13.125 14.87438,-0.47303 28.16777,10.2989 43.15624,10.59375 15.21408,0.11793 30.64914,-9.97656 46.9375,-9.5625 16.06146,0.23717 32.41132,11.154 48.8125,11.09375 16.11786,-0.35255 31.39022,-12.00962 48.1875,-12.125 12.40783,0 25.74176,6.08784 38.5,9.4375 l 0,-31.28125 c -12.7588,-3.34956 -26.09159,-9.4375 -38.5,-9.4375 -16.79728,0.11921 -32.06966,11.74123 -48.1875,12.09375 -16.40119,0.0602 -32.75104,-10.85659 -48.8125,-11.09375 -16.28836,-0.41408 -31.72341,9.68043 -46.9375,9.5625 -14.51886,-0.28564 -27.43319,-10.39297 -41.74999,-10.59375 z"
     id="path121-7" />
  <path
     style="fill:#ffffff;fill-opacity:1;fill-rule:evenodd"
     d="m 65.156255,452.55991 c -0.46183,-0.006 -0.94143,0.0165 -1.40625,0.0312 -15.2705,0.58967 -32.006725,12.38226 -46.937505,13.09375 -0.27162,0.004 -0.54179,0.003 -0.8125,0 l 0,31.3125 c 0.2707,0.003 0.54088,0.004 0.8125,0 14.93078,-0.71148 31.667005,-12.53531 46.937505,-13.125 14.87438,-0.47303 28.16777,10.2989 43.156245,10.59375 15.21407,0.11793 30.64913,-9.97656 46.9375,-9.5625 16.06146,0.23717 32.41131,11.154 48.8125,11.09375 16.11786,-0.35255 31.3902,-12.00962 48.1875,-12.125 12.40782,0 25.74175,6.08784 38.5,9.4375 l 0,-31.28125 c -12.75881,-3.34956 -26.09159,-9.4375 -38.5,-9.4375 -16.7973,0.11921 -32.06965,11.74123 -48.1875,12.09375 -16.40119,0.0602 -32.75105,-10.85659 -48.8125,-11.09375 -16.28837,-0.41408 -31.7234,9.68043 -46.9375,9.5625 -14.518865,-0.28564 -27.433195,-10.39297 -41.749995,-10.59375 z"
     id="path121-8" />
  <path
     style="fill:#ffffff;fill-opacity:1;fill-rule:evenodd"
     d="m 338.15625,448.75991 c -0.46183,-0.006 -0.94143,0.0165 -1.40625,0.0312 -15.2705,0.58967 -32.00673,12.38226 -46.9375,13.09375 -0.27161,0.004 -0.5418,0.003 -0.8125,0 l 0,31.3125 c 0.2707,0.003 0.54089,0.004 0.8125,0 14.93077,-0.71148 31.66701,-12.53531 46.9375,-13.125 14.87438,-0.47303 28.16778,10.2989 43.15625,10.59375 15.21409,0.11793 30.64914,-9.97656 46.9375,-9.5625 16.06146,0.23717 32.41132,11.154 48.8125,11.09375 16.11786,-0.35255 31.39022,-12.00962 48.1875,-12.125 12.40783,0 25.74176,6.08784 38.5,9.4375 l 0,-31.28125 c -12.75879,-3.34956 -26.09159,-9.4375 -38.5,-9.4375 -16.79728,0.11921 -32.06966,11.74123 -48.1875,12.09375 -16.40118,0.0602 -32.75104,-10.85659 -48.8125,-11.09375 -16.28836,-0.41408 -31.72341,9.68043 -46.9375,9.5625 -14.51887,-0.28564 -27.4332,-10.39297 -41.75,-10.59375 z"
     id="path121-7-6" />
  <path
     style="fill:none;stroke:#ffffff;stroke-width:20.02054024;stroke-linecap:butt;stroke-linejoin:miter;stroke-miterlimit:4;stroke-opacity:1;stroke-dasharray:none"
     d="m 200.01027,24.97815 0.3591,410.01158"
     id="path2899-8" />
  <path
     style="fill:none;stroke:#ffffff;stroke-width:20.02054024;stroke-linecap:butt;stroke-linejoin:miter;stroke-miterlimit:4;stroke-opacity:1;stroke-dasharray:none"
     d="m 240.01027,24.97815 0.3591,410.01158"
     id="path2899-8-8" />
  <path
     style="fill:none;stroke:#ffffff;stroke-width:20.02054024;stroke-linecap:butt;stroke-linejoin:miter;stroke-miterlimit:4;stroke-opacity:1;stroke-dasharray:none"
     d="m 280.01027,24.97815 0.3591,410.01158"
     id="path2899-8-3" />
  <path
     style="fill:none;stroke:#ffffff;stroke-width:20.02054024;stroke-linecap:butt;stroke-linejoin:miter;stroke-miterlimit:4;stroke-opacity:1;stroke-dasharray:none"
     d="m 320.01027,24.97815 0.3591,410.01158"
     id="path2899-8-8-1" />
  <path
     style="fill:none;stroke:#ffffff;stroke-width:20.02054024;stroke-linecap:butt;stroke-linejoin:miter;stroke-miterlimit:4;stroke-opacity:1;stroke-dasharray:none"
     d="m 360.01027,24.97815 0.3591,410.01158"
     id="path2899-8-8-1-4" />
  <path
     style="fill:none;stroke:#ffffff;stroke-width:20.02054024;stroke-linecap:butt;stroke-linejoin:miter;stroke-miterlimit:4;stroke-opacity:1;stroke-dasharray:none"
     d="m 400.01027,24.97815 0.3591,410.01158"
     id="path2899-8-8-1-2" />
</svg>
